<svg width="96" height="96" viewBox="0 0 96 96" fill="none" xmlns="http://www.w3.org/2000/svg">
<g filter="url(#filter0_f_93_731)">
<path opacity="0.8" d="M19.0454 17.8823L43.0727 17.8823L31.0591 41.9087L19.0454 17.8823Z" stroke="#5457FF" stroke-opacity="0.64" stroke-width="3.76471"/>
<circle cx="64.9412" cy="31.0588" r="15.0588" fill="#FCFCFC" fill-opacity="0.32"/>
<path d="M46.1176 64.9411C46.1176 73.2579 39.3756 80 31.0588 80C22.7421 80 16 73.2579 16 64.9411C16 56.6244 22.7421 49.8823 31.0588 49.8823C39.3756 49.8823 46.1176 56.6244 46.1176 64.9411Z" fill="#E2FF54" fill-opacity="0.32"/>
<path d="M16 49.8823H31.0588V80H16V49.8823Z" fill="#E2FF54" fill-opacity="0.32"/>
<circle cx="64.9412" cy="64.9411" r="13.1765" stroke="#FF5454" stroke-opacity="0.64" stroke-width="3.76471"/>
</g>
<path d="M19.0454 17.8823L43.0727 17.8823L31.0591 41.9087L19.0454 17.8823Z" stroke="#5457FF" stroke-width="3.76471"/>
<circle cx="64.9412" cy="31.0588" r="15.0588" fill="#FCFCFC"/>
<path d="M46.1176 64.9411C46.1176 73.2579 39.3756 80 31.0588 80C22.7421 80 16 73.2579 16 64.9411C16 56.6244 22.7421 49.8823 31.0588 49.8823C39.3756 49.8823 46.1176 56.6244 46.1176 64.9411Z" fill="#E2FF54"/>
<path d="M16 49.8823H31.0588V80H16V49.8823Z" fill="#E2FF54"/>
<circle cx="64.9412" cy="64.9411" r="13.1765" stroke="#FF5454" stroke-width="3.76471"/>
</svg>
