<svg width="25" height="24" viewBox="0 0 25 24" fill="none" xmlns="http://www.w3.org/2000/svg">
<path d="M24.3586 10.1507L24.2352 9.63696H12.8528V14.363H19.6536C18.9475 17.6523 15.6711 19.3837 12.9947 19.3837C11.0474 19.3837 8.99474 18.5802 7.63611 17.2886C6.91929 16.5962 6.34871 15.772 5.95703 14.863C5.56535 13.9541 5.36027 12.9782 5.35352 11.9914C5.35352 10.0007 6.26546 8.00946 7.59242 6.69964C8.91939 5.38982 10.9235 4.65696 12.9161 4.65696C15.1982 4.65696 16.8337 5.84571 17.4453 6.38786L20.8686 3.04714C19.8644 2.18143 17.1056 0 12.8058 0C9.4884 0 6.30751 1.24661 3.98232 3.52018C1.68771 5.75893 0.5 8.99625 0.5 12C0.5 15.0037 1.62382 18.0793 3.84744 20.3357C6.22341 22.7421 9.58833 24 13.0532 24C16.2057 24 19.1938 22.7882 21.3235 20.5896C23.4171 18.4254 24.5 15.4307 24.5 12.2914C24.5 10.9698 24.3646 10.185 24.3586 10.1507Z" fill="#505050"/>
</svg>
