<svg width="25" height="24" viewBox="0 0 25 24" fill="none" xmlns="http://www.w3.org/2000/svg">
<path d="M11.851 0.0151653C11.0344 0.0632114 10.3234 0.173719 9.52118 0.375515C5.84386 1.30041 2.76942 3.99823 1.3547 7.54408C0.377125 9.99446 0.233011 12.7211 0.948779 15.2628C1.65734 17.79 3.19456 20.029 5.30343 21.6073C6.74458 22.686 8.37547 23.4163 10.1385 23.7742C11.4499 24.0385 12.9703 24.0721 14.3226 23.8679C16.2609 23.5748 18.1416 22.7797 19.7173 21.5929C20.5772 20.9419 21.4394 20.0819 22.088 19.2218C24.0239 16.6537 24.8477 13.389 24.365 10.1963C24.0335 8.00773 23.1328 6.021 21.6772 4.2673C21.3818 3.91175 20.5892 3.11898 20.2337 2.82109C18.4731 1.35567 16.4315 0.437977 14.2289 0.125673C13.4675 0.0175667 12.5452 -0.0256748 11.851 0.0151653ZM16.5299 11.9956L16.5227 19.1257L15.281 19.1329L14.0368 19.1377V12.9734V6.80896L13.1553 6.82098C12.2137 6.83299 12.096 6.845 11.6469 6.97232C11.3995 7.04199 11.0536 7.20054 10.8494 7.33508C10.7726 7.38552 10.6261 7.50564 10.5228 7.60414C10.2177 7.89722 10.0304 8.21913 9.91029 8.66356C9.85505 8.87257 9.84784 8.93503 9.84784 9.38426C9.84544 9.90317 9.86465 10.0617 9.96794 10.4653C10.04 10.7368 10.261 11.2052 10.4243 11.4262C10.823 11.9716 11.2433 12.3223 12.5476 13.204C12.9631 13.485 13.3138 13.7229 13.3234 13.7325C13.3354 13.7421 12.5332 14.9601 11.5436 16.4375L9.74456 19.1257L8.38508 19.1329L7.0256 19.1377L7.67892 18.1648C8.03921 17.6291 8.76698 16.5456 9.2978 15.7553L10.261 14.3187L9.94632 14.0784C8.27459 12.8172 7.53481 11.6521 7.38108 10.0329C7.34746 9.67495 7.36427 9.01911 7.41951 8.67798C7.71735 6.75851 9.06002 5.45645 11.1857 5.02643C11.4451 4.97358 11.8895 4.91112 12.1993 4.8847C12.2521 4.87989 13.2489 4.87509 14.4163 4.87268L16.5347 4.86788L16.5299 11.9956Z" fill="#505050"/>
</svg>
